<svg xmlns="http://www.w3.org/2000/svg" xmlns:xlink="http://www.w3.org/1999/xlink" id="Layer_1" x="0px" y="0px" viewBox="0 0 284 78" style="enable-background:new 0 0 284 78;" xml:space="preserve">
<g>
	<g>
		<g>
			<g>
				<path d="M49.9,2.1V3c-0.9,0-1.7,0.2-2.3,0.5s-1.1,1-1.6,1.9c-0.4,0.6-0.9,2.1-1.7,4.4l-9.5,28.7h-1.3l-8.1-22.8l-7.9,22.8h-1      L6.1,8.9C5.3,6.7,4.8,5.4,4.6,5C4.3,4.3,3.8,3.8,3.2,3.5C2.6,3.1,1.8,3,0.8,3V2.1h13.1V3h-0.6c-0.9,0-1.6,0.2-2.1,0.6      c-0.5,0.4-0.7,0.9-0.7,1.5s0.4,2,1.1,4.2l7,19.9l5.8-16.9l-1-2.8l-1-2.5c-0.4-0.9-0.8-1.7-1.2-2.3c-0.2-0.3-0.5-0.6-0.8-0.8      c-0.4-0.3-0.9-0.5-1.3-0.7C18.7,3,18.2,3,17.5,3V2.1h13.8V3h-0.9c-1,0-1.7,0.2-2.1,0.6c-0.5,0.4-0.7,1-0.7,1.7      c0,0.9,0.4,2.5,1.2,4.7l6.9,19.3L42,9.8c0.8-2.2,1.2-3.7,1.2-4.5c0-0.4-0.1-0.8-0.4-1.1c-0.3-0.4-0.6-0.6-1-0.7      C41.1,3.1,40.3,3,39.2,3V2.1H49.9z"></path>
				<path d="M51.4,32.5c0.8,0,1.5,0.3,2.1,0.8c0.6,0.6,0.8,1.2,0.8,2s-0.3,1.5-0.8,2c-0.6,0.6-1.2,0.8-2,0.8s-1.5-0.3-2-0.8      c-0.6-0.6-0.8-1.2-0.8-2s0.3-1.5,0.8-2.1C49.9,32.8,50.6,32.5,51.4,32.5z"></path>
				<path d="M88.2,37.6L74.6,7.7v23.6c0,2.3,0.2,3.7,0.7,4.2c0.7,0.8,1.7,1.1,3.1,1.1h1.3v0.9H67.2v-0.9h1.3c1.5,0,2.6-0.5,3.2-1.4      c0.4-0.6,0.6-1.9,0.6-4V8.4c0-1.6-0.2-2.8-0.5-3.5c-0.2-0.5-0.7-1-1.4-1.3C69.7,3.2,68.7,3,67.2,3V2.1h10.2l12.7,27.7l12.7-27.7      h10V3h-1.2c-1.5,0-2.6,0.5-3.2,1.4c-0.4,0.6-0.6,1.9-0.6,4v22.9c0,2.3,0.2,3.7,0.7,4.2c0.7,0.8,1.7,1.1,3.1,1.1h1.2v0.9H97.7      v-0.9H99c1.5,0,2.6-0.5,3.2-1.4c0.4-0.6,0.6-1.9,0.6-4V7.7L89,37.6H88.2z"></path>
				<path d="M120.1,32.5c0.8,0,1.5,0.3,2.1,0.8c0.6,0.6,0.8,1.2,0.8,2s-0.3,1.5-0.8,2c-0.6,0.6-1.2,0.8-2,0.8s-1.5-0.3-2-0.8      c-0.6-0.6-0.8-1.2-0.8-2s0.3-1.5,0.8-2.1C118.7,32.8,119.3,32.5,120.1,32.5z"></path>
				<path d="M154.8,17.8l13.1,13c2.1,2.2,4,3.7,5.5,4.5s3,1.2,4.5,1.3v0.9H161v-0.9c1,0,1.7-0.2,2.2-0.5c0.4-0.3,0.7-0.7,0.7-1.1      c0-0.4-0.1-0.8-0.2-1.1c-0.2-0.3-0.7-1-1.6-1.9l-12.2-12.2v11.5c0,1.8,0.1,3,0.3,3.6c0.2,0.4,0.5,0.8,1.1,1.1      c0.8,0.4,1.6,0.6,2.4,0.6h1.2v0.9h-15.2v-0.9h1.3c1.5,0,2.5-0.4,3.2-1.3c0.4-0.6,0.6-1.9,0.6-4.1V8.4c0-1.8-0.1-3-0.3-3.6      c-0.2-0.4-0.5-0.8-1.1-1.1c-0.8-0.4-1.6-0.6-2.4-0.6h-1.3v-1h15.2V3h-1.2c-0.8,0-1.6,0.2-2.4,0.6c-0.5,0.3-0.9,0.7-1.1,1.3      c-0.2,0.6-0.3,1.7-0.3,3.5v10.8c0.3-0.3,1.5-1.4,3.6-3.3c5.2-4.8,8.3-7.9,9.4-9.5c0.5-0.7,0.7-1.3,0.7-1.8      c0-0.4-0.2-0.8-0.5-1.1c-0.4-0.3-1-0.5-1.9-0.5h-0.8V2.1h13V3c-0.8,0-1.5,0.1-2.1,0.3s-1.4,0.6-2.3,1.1c-0.9,0.6-2,1.4-3.4,2.7      c-0.4,0.3-2.1,2.1-5.3,5.3L154.8,17.8z"></path>
				<path d="M188,4.1V18h7.5c2,0,3.4-0.3,4.1-0.9c0.9-0.8,1.4-2.2,1.5-4.2h0.9v12.3h-0.9c-0.2-1.7-0.5-2.8-0.7-3.3      c-0.3-0.6-0.8-1.1-1.5-1.4s-1.8-0.5-3.3-0.5H188v11.6c0,1.6,0.1,2.5,0.2,2.9c0.1,0.3,0.4,0.6,0.7,0.8s1,0.3,2,0.3h6      c2,0,3.4-0.1,4.3-0.4c0.9-0.3,1.8-0.8,2.6-1.6c1.1-1.1,2.2-2.7,3.3-4.9h1.1l-3.1,9h-27.3v-0.9h1.3c0.8,0,1.6-0.2,2.4-0.6      c0.6-0.3,0.9-0.7,1.1-1.3c0.2-0.6,0.3-1.7,0.3-3.5v-23c0-2.3-0.2-3.8-0.7-4.3c-0.6-0.7-1.7-1.1-3.1-1.1h-1.3V2.1H205l0.4,7.9      h-1.1c-0.4-1.9-0.8-3.1-1.2-3.8S202,5,201.2,4.6c-0.7-0.3-1.9-0.4-3.6-0.4L188,4.1L188,4.1z"></path>
				<path d="M241.1,1.2l0.8,12.2h-0.8c-1.1-3.7-2.6-6.3-4.6-7.9s-4.4-2.4-7.2-2.4c-2.4,0-4.5,0.6-6.4,1.8s-3.4,3.1-4.5,5.7      s-1.6,5.9-1.6,9.8c0,3.2,0.5,6,1.5,8.4s2.6,4.2,4.6,5.4c2.1,1.3,4.4,1.9,7.1,1.9c2.3,0,4.3-0.5,6.1-1.5s3.7-2.9,5.8-5.9l0.8,0.5      c-1.8,3.1-3.9,5.4-6.2,6.9c-2.4,1.5-5.2,2.2-8.4,2.2c-5.9,0-10.4-2.2-13.7-6.6c-2.4-3.3-3.6-7.1-3.6-11.5c0-3.5,0.8-6.8,2.4-9.8      c1.6-3,3.8-5.3,6.5-6.9c2.8-1.6,5.8-2.5,9.1-2.5c2.6,0,5.1,0.6,7.6,1.9c0.7,0.4,1.3,0.6,1.6,0.6c0.5,0,0.9-0.2,1.2-0.5      c0.5-0.5,0.8-1.1,1-2h0.9V1.2z"></path>
				<path d="M260.1,17.8l13.1,13c2.1,2.2,4,3.7,5.5,4.5s3,1.2,4.5,1.3v0.9h-16.9v-0.9c1,0,1.7-0.2,2.2-0.5c0.4-0.3,0.7-0.7,0.7-1.1      c0-0.4-0.1-0.8-0.3-1.1c-0.2-0.3-0.7-1-1.6-1.9L255,19.8v11.5c0,1.8,0.1,3,0.3,3.6c0.2,0.4,0.5,0.8,1.1,1.1      c0.8,0.4,1.6,0.6,2.4,0.6h1.2v0.9h-15.2v-0.9h1.3c1.5,0,2.5-0.4,3.2-1.3c0.4-0.6,0.6-1.9,0.6-4.1V8.4c0-1.8-0.1-3-0.3-3.6      c-0.2-0.4-0.5-0.8-1.1-1.1C247.8,3.2,247,3,246.2,3h-1.3V2.1h15.2V3h-1.2c-0.8,0-1.6,0.2-2.4,0.6c-0.5,0.3-0.9,0.7-1.1,1.3      c-0.2,0.6-0.3,1.7-0.3,3.5v10.8c0.3-0.3,1.5-1.4,3.6-3.3c5.2-4.8,8.3-7.9,9.4-9.5c0.5-0.7,0.7-1.3,0.7-1.8      c0-0.4-0.2-0.8-0.5-1.1c-0.4-0.3-1-0.5-1.9-0.5h-0.8V2.1h13V3c-0.8,0-1.5,0.1-2.1,0.3s-1.4,0.6-2.3,1.1c-0.9,0.6-2,1.4-3.4,2.7      c-0.4,0.3-2.1,2.1-5.3,5.3L260.1,17.8z"></path>
			</g>
			<g>
				<path d="M9,48.9v11.4h5.3c1.2,0,2.1-0.3,2.6-0.8s0.9-1.6,1.1-3.2h0.8V66H18c0-1.1-0.2-1.9-0.4-2.5c-0.3-0.5-0.6-0.9-1.1-1.2      s-1.2-0.4-2.1-0.4H9v9c0,1.4,0.1,2.4,0.3,2.9c0.1,0.4,0.4,0.7,0.9,0.9c0.6,0.3,1.3,0.5,1.9,0.5h1V76H0.8v-0.8h1      c1.2,0,2.1-0.3,2.6-1c0.3-0.4,0.5-1.5,0.5-3.2V52.4c0-1.4-0.1-2.4-0.3-2.9c-0.1-0.3-0.4-0.7-0.9-0.9c-0.6-0.3-1.3-0.5-2-0.5h-1      v-0.8h21.4l0.3,6.3h-0.8c-0.4-1.3-0.8-2.3-1.3-3c-0.5-0.6-1.1-1.1-1.8-1.4c-0.7-0.3-1.8-0.4-3.3-0.4H9V48.9z"></path>
				<path d="M40.6,46.7c3.7,0,7,1.4,9.7,4.3c2.7,2.8,4.1,6.4,4.1,10.6c0,4.4-1.4,8-4.1,10.9c-2.8,2.9-6.1,4.3-10,4.3      c-4,0-7.3-1.4-10-4.2c-2.7-2.8-4-6.5-4-10.9c0-4.6,1.6-8.3,4.7-11.2C33.6,48,36.8,46.7,40.6,46.7z M40.2,48.2      c-2.6,0-4.6,1-6.2,2.9c-2,2.4-3,5.8-3,10.4c0,4.7,1,8.3,3,10.9c1.5,1.9,3.6,2.9,6.1,2.9c2.7,0,4.9-1.1,6.7-3.2s2.6-5.4,2.6-10      c0-4.9-1-8.6-2.9-11C45,49.2,42.9,48.2,40.2,48.2z"></path>
				<path d="M77.1,48.1v-0.8h10.2v0.8h-1.1c-1.1,0-2,0.5-2.6,1.4c-0.3,0.4-0.4,1.4-0.4,3v11.7c0,2.9-0.3,5.1-0.9,6.7s-1.7,3-3.4,4.1      c-1.7,1.1-4,1.7-6.8,1.7c-3.1,0-5.5-0.5-7.1-1.6s-2.8-2.6-3.5-4.4c-0.4-1.3-0.7-3.6-0.7-7.1V52.4c0-1.8-0.2-2.9-0.7-3.4      s-1.3-0.8-2.3-0.8h-1.1v-0.8h12.4v0.8H68c-1.2,0-2,0.4-2.5,1.1c-0.4,0.5-0.5,1.6-0.5,3.2V65c0,1.1,0.1,2.4,0.3,3.8      c0.2,1.4,0.6,2.6,1.1,3.4s1.3,1.5,2.3,2S71,75,72.4,75c1.9,0,3.6-0.4,5-1.2c1.5-0.8,2.5-1.9,3-3.2c0.5-1.3,0.8-3.4,0.8-6.5V52.4      c0-1.8-0.2-2.9-0.6-3.3c-0.6-0.6-1.4-0.9-2.5-0.9h-1V48.1z"></path>
				<path d="M87.6,47.3h7.8L113,68.8V52.3c0-1.7-0.2-2.8-0.6-3.3c-0.5-0.6-1.4-0.9-2.5-0.9h-1v-0.8H119v0.8h-1      c-1.2,0-2.1,0.4-2.6,1.1c-0.3,0.4-0.5,1.5-0.5,3.1v24.3h-0.8L95.2,53.4v17.8c0,1.7,0.2,2.8,0.6,3.3c0.5,0.6,1.4,0.9,2.5,0.9h1      v0.8H89.2v-0.8h1c1.3,0,2.1-0.4,2.7-1.1c0.3-0.4,0.5-1.5,0.5-3.1V51.1c-0.8-1-1.5-1.6-1.9-1.9c-0.4-0.3-1.1-0.6-1.9-0.9      c-0.4-0.1-1-0.2-1.9-0.2L87.6,47.3L87.6,47.3z"></path>
				<path d="M120.8,76.1v-0.8h1.1c1.2,0,2.1-0.4,2.6-1.2c0.3-0.5,0.5-1.5,0.5-3.1V52.4c0-1.8-0.2-2.9-0.6-3.3      c-0.6-0.6-1.4-0.9-2.5-0.9h-1.1v-0.8h11.7c4.3,0,7.6,0.5,9.8,1.5c2.3,1,4.1,2.6,5.4,4.9c1.4,2.3,2.1,4.9,2.1,7.9      c0,4-1.2,7.4-3.7,10c-2.7,3-6.9,4.5-12.5,4.5h-12.8V76.1z M129,74c1.8,0.4,3.3,0.6,4.5,0.6c3.3,0,6-1.2,8.2-3.5s3.3-5.4,3.3-9.4      s-1.1-7.1-3.3-9.4c-2.2-2.3-5-3.4-8.4-3.4c-1.3,0-2.7,0.2-4.4,0.6L129,74L129,74z"></path>
				<path d="M171.8,66.5h-11.2l-2,4.5c-0.5,1.1-0.7,1.9-0.7,2.5c0,0.4,0.2,0.8,0.6,1.1c0.4,0.3,1.3,0.5,2.7,0.6V76h-9.1v-0.8      c1.2-0.2,2-0.5,2.3-0.8c0.7-0.7,1.5-2.1,2.4-4.1L167,46.7h0.7l10,23.9c0.8,1.9,1.5,3.2,2.2,3.7c0.7,0.6,1.6,0.9,2.7,1v0.8h-11.3      v-0.8c1.1-0.1,1.9-0.2,2.3-0.6c0.4-0.3,0.6-0.7,0.6-1.2c0-0.6-0.3-1.6-0.9-2.9L171.8,66.5z M171.1,65l-4.8-11.6l-5,11.6H171.1z"></path>
				<path d="M203.9,47.3l0.3,6.8h-0.8c-0.2-1.2-0.4-2-0.6-2.5c-0.4-0.8-1-1.4-1.7-1.8c-0.7-0.4-1.7-0.6-2.9-0.6h-4v22      c0,1.7,0.2,2.8,0.6,3.3c0.6,0.6,1.4,0.9,2.5,0.9h1v0.8h-12.4v-0.8h1c1.2,0,2.1-0.4,2.6-1.1c0.3-0.4,0.5-1.5,0.5-3.1v-22h-3.4      c-1.3,0-2.3,0.1-2.9,0.3c-0.7,0.3-1.4,0.8-1.9,1.5c-0.5,0.8-0.8,1.8-0.9,3.1h-0.8l0.3-6.8C180.4,47.3,203.9,47.3,203.9,47.3z"></path>
				<path d="M219.2,75.3v0.8h-12.4v-0.8h1c1.2,0,2.1-0.3,2.6-1c0.3-0.4,0.5-1.5,0.5-3.2V52.4c0-1.4-0.1-2.4-0.3-2.9      c-0.1-0.3-0.4-0.7-0.9-0.9c-0.6-0.3-1.3-0.5-2-0.5h-1v-0.8h12.4v0.8h-1c-1.2,0-2,0.3-2.6,1c-0.4,0.4-0.5,1.5-0.5,3.2v18.6      c0,1.4,0.1,2.4,0.3,2.9c0.1,0.4,0.4,0.7,0.9,0.9c0.6,0.3,1.3,0.5,1.9,0.5L219.2,75.3L219.2,75.3z"></path>
				<path d="M236.5,46.7c3.7,0,6.9,1.4,9.7,4.3c2.7,2.8,4.1,6.4,4.1,10.6c0,4.4-1.4,8-4.1,10.9c-2.8,2.9-6.1,4.3-10,4.3      c-4,0-7.3-1.4-10-4.2c-2.7-2.8-4-6.5-4-10.9c0-4.6,1.6-8.3,4.7-11.2C229.6,48,232.8,46.7,236.5,46.7z M236.1,48.2      c-2.6,0-4.6,1-6.2,2.9C228,53.5,227,57,227,61.5c0,4.7,1,8.3,3,10.9c1.5,1.9,3.6,2.9,6.1,2.9c2.7,0,4.9-1.1,6.7-3.2      s2.6-5.4,2.6-10c0-4.9-1-8.6-2.9-11C241,49.2,238.9,48.2,236.1,48.2z"></path>
				<path d="M251.8,47.3h7.8l17.5,21.4V52.3c0-1.7-0.2-2.8-0.6-3.3c-0.5-0.6-1.4-0.9-2.5-0.9h-1v-0.8h10.2v0.8h-1      c-1.2,0-2.1,0.4-2.6,1.1c-0.3,0.4-0.5,1.5-0.5,3.1v24.3h-0.8l-18.9-23.2v17.8c0,1.7,0.2,2.8,0.6,3.3c0.5,0.6,1.4,0.9,2.5,0.9h1      v0.8h-10.2v-0.8h1c1.3,0,2.1-0.4,2.7-1.1c0.3-0.4,0.5-1.5,0.5-3.1V51.1c-0.8-1-1.5-1.6-1.9-1.9c-0.4-0.3-1.1-0.6-1.9-0.9      c-0.4-0.1-1-0.2-1.9-0.2L251.8,47.3L251.8,47.3z"></path>
			</g>
		</g>
	</g>
</g>
</svg>